<?xml version="1.0" standalone="no"?>
<!DOCTYPE svg PUBLIC "-//W3C//DTD SVG 20010904//EN"
 "http://www.w3.org/TR/2001/REC-SVG-20010904/DTD/svg10.dtd">
<svg version="1.0" xmlns="http://www.w3.org/2000/svg"
 width="568.000000pt" height="168.000000pt" viewBox="0 0 568.000000 168.000000"
 preserveAspectRatio="xMidYMid meet">
<metadata>
Created by potrace 1.15, written by Peter Selinger 2001-2017
</metadata>
<g transform="translate(0.000000,168.000000) scale(0.100000,-0.100000)"
fill="#000000" stroke="none">
<path d="M114 1374 c3 -21 15 -151 26 -289 11 -137 23 -264 25 -280 4 -25 32
-51 175 -159 94 -71 172 -127 175 -124 3 2 -7 145 -22 317 l-27 313 -163 124
c-89 68 -170 127 -179 131 -14 5 -15 0 -10 -33z"/>
<path d="M533 1107 c7 -18 64 -159 127 -314 l113 -282 351 -3 c193 -2 353 -2
355 -1 2 1 -39 138 -91 305 l-94 303 -74 6 c-41 4 -216 9 -387 12 l-313 6 13
-32z"/>
<path d="M1610 770 l0 -270 70 0 70 0 0 168 1 167 43 -100 43 -100 54 -3 54
-3 40 98 40 98 3 -162 2 -163 75 0 75 0 0 270 0 270 -88 0 -88 0 -29 -67 c-16
-38 -41 -94 -55 -126 l-26 -58 -55 125 -54 126 -87 0 -88 0 0 -270z"/>
<path d="M2340 783 c-52 -142 -96 -264 -98 -270 -3 -10 15 -13 70 -13 l75 0
18 55 19 55 92 0 91 0 19 -52 19 -53 78 -3 c42 -2 77 -2 77 0 0 2 -44 122 -98
268 l-97 265 -86 3 -86 3 -93 -258z"/>
<path d="M2860 769 l0 -272 148 6 c81 3 163 10 183 16 178 54 239 312 105 445
-63 64 -110 76 -288 76 l-148 0 0 -271z m284 142 c52 -29 71 -65 71 -134 -1
-104 -43 -151 -149 -163 l-56 -7 0 166 0 166 53 -6 c28 -3 65 -13 81 -22z"/>
<path d="M3460 770 l0 -270 195 0 195 0 0 60 0 60 -120 0 -120 0 0 60 0 60
115 0 115 0 0 55 0 55 -115 0 -115 0 0 40 0 40 120 0 120 0 0 55 0 55 -195 0
-195 0 0 -270z"/>
<path d="M3960 770 l0 -270 70 0 70 0 0 100 0 100 28 0 c23 -1 38 -16 100
-100 l73 -100 154 0 154 0 19 53 20 52 92 0 92 0 20 -52 19 -53 76 0 c56 0 74
3 71 12 -2 7 -46 129 -98 271 l-93 258 -86 -3 -86 -3 -92 -250 c-51 -137 -93
-253 -95 -256 -2 -3 -39 41 -82 98 l-80 105 32 25 c45 34 62 73 62 137 0 45
-5 60 -27 87 -44 52 -74 59 -253 59 l-160 0 0 -270z m249 159 c36 -13 49 -47
33 -84 -11 -25 -63 -45 -114 -45 -28 0 -28 0 -28 70 l0 70 39 0 c21 0 52 -5
70 -11z"/>
</g>
</svg>
